<svg xmlns="http://www.w3.org/2000/svg" fill="none" viewBox="0 0 241 88"><path fill="#DC0D1D" fill-rule="evenodd" d="m226.046 6.725 8.163 8.17-27.596 27.912-8.164-8.171 27.597-27.911ZM178.222 42.01c12.57 0 22.828 10.268 22.828 22.85s-10.258 22.85-22.828 22.85c-12.571 0-22.829-10.268-22.829-22.85s10.258-22.85 22.829-22.85Zm0 9.545c7.152 0 12.931 6.002 12.931 13.305 0 7.376-5.852 13.305-12.931 13.305-7.152 0-12.932-6.002-12.932-13.305s5.852-13.305 12.932-13.305ZM58.082 66.958a22.623 22.623 0 0 1-1.66 4.05 35.175 35.175 0 0 1-2.818 4.7C48.114 83.227 39.3 88 29.764 88c-8.236 0-15.677-3.47-21.095-9.039C3.323 73.466 0 65.801 0 57.486c0-8.388 3.323-15.98 8.741-21.548 5.418-5.568 12.86-9.04 21.095-9.04 3.179 0 6.285.507 9.175 1.52 1.372.433 2.745 1.084 4.118 1.735 6.574 3.326 11.847 9.11 14.52 16.414H45.08a19.02 19.02 0 0 0-7.007-6.363c-.795-.434-1.59-.723-2.529-1.085-1.806-.578-3.684-.94-5.635-.94-5.057 0-9.68 2.17-13.003 5.568-3.396 3.47-5.49 8.315-5.49 13.666 0 5.351 2.094 10.124 5.49 13.594 3.323 3.471 7.946 5.568 13.003 5.568 5.924 0 11.342-2.965 14.738-7.665.505-.65.939-1.373 1.3-2.096h12.137v.144ZM241 51.484v11.57h-28.319v-11.57H241ZM175.982 0h11.559v28.345h-11.559V0ZM74.771 28.49v57.702H63.284V28.49h11.487Zm18.06 45.699c0 1.663.65 2.892 1.806 3.76 1.156.868 2.745 1.302 4.696 1.302 3.106-.145 5.418-1.157 7.008-3.037 1.517-1.88 2.311-3.76 2.311-5.713v-5.35c-2.673 1.518-5.851 2.458-9.608 2.82-3.757.361-5.852 2.458-6.213 6.218Zm-10.908.795c.144-5.134 1.445-8.677 4.117-10.629 2.601-1.952 5.708-3.182 9.247-3.616 3.54-.433 6.575-.867 9.247-1.229 2.601-.434 4.046-1.518 4.191-3.47.072-1.664-.362-2.893-1.301-3.833-.939-.94-2.745-1.374-5.346-1.374-2.817 0-4.84.506-6.068 1.519-1.228 1.012-1.806 2.53-1.734 4.555h-10.62c0-4.628 1.445-8.17 4.407-10.774 2.962-2.603 7.658-3.905 14.015-3.977 5.418 0 9.681 1.085 12.859 3.037 3.179 2.025 4.841 4.845 4.913 8.46v26.538c0 1.012.144 1.88.433 2.53.361.724.939 1.23 1.806 1.664v1.807h-11.847c-.506-.578-.795-1.374-1.012-2.314a19.909 19.909 0 0 1-.433-2.892c-1.084 1.88-2.745 3.47-5.057 4.7-2.312 1.23-5.13 1.88-8.453 1.952-4.479-.072-7.802-1.157-10.041-3.326-2.24-2.097-3.323-5.206-3.323-9.328ZM140.15 63.85v22.416h-11.414V44.108h10.619v7.665c1.012-2.314 2.529-4.338 4.551-6.218 1.951-1.808 5.13-2.82 9.464-2.893V54.16c-3.323-.216-6.285.217-8.958 1.23-2.745.94-4.118 3.76-4.262 8.46Z" clip-rule="evenodd"/></svg>
