<svg xmlns="http://www.w3.org/2000/svg" fill="none" viewBox="0 0 339 57"><path fill="#0091C4" d="M29.08 27.205H13.32v16.791H0V0h13.32v15.573h15.76V0h13.321v43.996h-13.32V27.205ZM70.825 40.431c-1.876 2.064-5.347 4.315-10.976 4.315-7.41 0-10.6-4.409-10.6-9.944v-22.7h11.914V29.83c0 3.19 1.688 4.503 4.596 4.503 2.627 0 4.034-1.408 4.972-2.533V12.1h11.914v31.895h-11.82V40.43ZM93.151 43.714c2.439 2.44 6.098 3.471 9.475 3.471 2.814 0 7.41-1.032 7.41-6.66v-1.689c-2.72 3.096-5.628 4.315-9.005 4.315-7.692 0-13.978-4.971-13.978-15.947 0-10.6 6.098-15.947 13.978-15.947 3.283 0 6.379 1.126 9.005 4.127v-3.377h11.914v28.424c0 13.79-11.351 16.323-19.231 16.323-5.44 0-10.319-1.407-14.54-4.785l4.972-8.255Zm16.885-19.793c-1.125-1.313-3.377-2.064-4.878-2.064-3.189 0-5.91 1.501-5.91 5.441 0 3.846 2.721 5.44 5.91 5.44 1.501 0 3.753-.75 4.878-2.063v-6.754ZM150.186 26.266c0-3.283-1.782-4.409-4.596-4.409-2.721 0-4.128 1.407-5.066 2.533v19.7H128.61V0h11.914v15.76c1.876-2.158 5.347-4.41 10.975-4.41 7.411 0 10.601 4.316 10.601 9.944V44.09h-11.914V26.266ZM183.769 11.35c9.381 0 16.604 6.755 16.604 17.918v2.439h-21.669c.656 2.064 3.002 4.034 7.035 4.034 2.721 0 5.629-1.032 7.223-2.252l4.878 7.317c-3.189 2.72-8.817 3.94-13.602 3.94-9.943 0-17.729-6.285-17.729-16.792-.094-9.193 7.035-16.603 17.26-16.603Zm-5.159 12.852h10.506c-.375-1.407-1.407-3.846-5.253-3.846-3.658 0-4.878 2.44-5.253 3.846ZM206.471 31.895c2.533 1.97 7.88 4.033 11.444 4.033 2.439 0 3.19-.656 3.19-1.5 0-1.033-1.407-1.408-4.503-1.877-5.347-.75-13.602-1.688-13.602-10.319 0-5.722 4.972-10.881 14.259-10.881 5.347 0 10.131 1.688 13.789 4.127l-4.315 7.692c-1.97-1.688-5.628-3.283-9.381-3.283-1.688 0-3.001.47-3.001 1.407 0 .938.938 1.314 4.127 1.782 5.347.751 13.977 1.877 13.977 10.788 0 6.38-5.628 10.976-15.103 10.976-5.909 0-12.195-2.064-15.665-4.878l4.784-8.068ZM245.87 11.914v32.082h-7.692V0h7.88l22.513 31.238V0h7.693v43.996h-7.411L245.87 11.914ZM299.622 11.35c9.568 0 15.666 7.318 15.666 17.355v1.689H290.71c.563 4.784 4.128 8.818 10.131 8.818 3.096 0 6.754-1.22 9.006-3.471l3.189 4.596c-3.189 3.002-7.88 4.597-12.945 4.597-9.569 0-16.698-6.66-16.698-16.792.094-9.38 6.848-16.791 16.229-16.791Zm-8.912 14.072h17.917c-.093-3.753-2.72-8.443-9.005-8.443-5.91 0-8.631 4.597-8.912 8.443ZM323.637 36.585V18.198h-5.254v-6.097h5.254v-8.63h6.941v8.724h6.473v6.097h-6.473V34.99c0 2.158 1.032 3.752 3.002 3.752 1.313 0 2.533-.563 3.096-1.125l1.688 5.253c-1.219 1.22-3.283 2.064-6.566 2.064-5.347-.094-8.161-3.002-8.161-8.35Z"/></svg>
