<svg xmlns="http://www.w3.org/2000/svg" fill="none" viewBox="0 0 241 58"><path fill="#0397D5" fill-rule="evenodd" d="M57.21 57.21V0h-9.911v44.446L18.319 6.607C15.75 2.624 12.147.421 7.508 0H.15L0 57.21h10.06V10.96L45.347 57.21h11.862ZM69.372 0v9.911h102.406V.001H69.372ZM171.778 33.636v-9.91H69.372v9.91h102.406ZM171.928 57.51V47.6H69.522v9.91h102.406ZM207.365 9.311v48.2c7.669 1.088 10.272-2.166 10.06-9.31V9.312H241V.001h-57.209v9.46l23.574-.15Z" clip-rule="evenodd"/><path fill="#A2D8F4" fill-rule="evenodd" d="M171.928 47.6c-33.529-6.407-67.665-6.407-102.406 0h102.406ZM69.372 9.91c34.841 5.807 68.976 5.807 102.406 0H69.372Z" clip-rule="evenodd"/></svg>
