<svg xmlns="http://www.w3.org/2000/svg" fill="none" viewBox="0 0 241 57"><path fill="#EA5B0C" d="M182.158 28.582c1.224-4.517 4.489-7.885 9.793-7.885 5.224 0 8.325 3.286 8.733 7.885h-18.526Zm-123.152 0c1.224-4.517 4.489-7.885 9.793-7.885 5.224 0 8.325 3.286 8.733 7.885H59.006Zm77.123-9.938V11.91h-9.63L114.42 25.214 102.505 11.91H92.303v7.146l13.711 15.194-13.71 15.277v6.652h9.874l11.752-13.223 11.753 13.223h10.609v-6.981L122.336 33.92l13.793-15.276Zm56.149-7.556c-13.14 0-21.708 9.856-21.708 23.079 0 13.716 8.079 22.833 21.708 22.833 10.691 0 17.955-5.502 19.749-14.948H201.5c-1.387 2.875-4.244 4.682-8.324 4.682-6.284 0-10.447-3.285-11.344-9.446h30.849c.082-1.068.082-1.807.082-2.628 0-12.895-7.345-23.572-20.485-23.572Zm-123.153 0c-13.14 0-21.709 9.856-21.709 23.079 0 13.716 8.08 22.833 21.71 22.833 10.69 0 17.954-5.502 19.75-14.948H78.346c-1.387 2.875-4.244 4.682-8.324 4.682-6.284 0-10.447-3.285-11.344-9.446h30.849c.081-1.068.081-1.807.081-2.628 0-12.895-7.344-23.572-20.484-23.572Zm-44.478 0c-4.652 0-9.14 1.724-12.16 4.846l-1.55-4.025H0v44.27h12.487V33.182c0-7.803 3.346-11.581 9.385-11.581 5.386 0 7.018 3.86 7.018 8.953v25.625h12.488V28.746c0-10.677-6.122-17.658-16.73-17.658Zm210.396 34.578c-3.02 0-3.918-1.15-3.918-4.19V0h-12.486v41.231c0 8.542 3.427 14.948 13.384 14.948H241V45.666h-5.957Zm-77.45-4.189V22.422h10.364V11.91h-10.364V0h-12.487v11.91h-5.305v10.512h5.305v18.81c0 8.54 3.428 14.947 13.385 14.947h9.63V45.666h-6.611c-3.019 0-3.917-1.15-3.917-4.189Z"/></svg>
