<svg xmlns="http://www.w3.org/2000/svg" fill="none" viewBox="0 0 140 122"><g clip-path="url(#a)"><path fill="url(#b)" d="M0 58.166C0 100.425 37.054 122 72.72 122S140 98.393 140 72.523c0-25.87-24.718-36.299-34.867-44.554C94.985 19.714 83.165 0 50.348 0 17.53 0 0 33.243 0 58.166Z"/><path fill="#fff" d="M72.72 69.162c-.038 3.212-.7 6.265-2.3 9.074-2.157 3.797-5.342 6.268-9.6 7.315a17.19 17.19 0 0 1-2.827.41 15.5 15.5 0 0 1-2.441-.03c-3.127-.277-5.956-1.334-8.395-3.35-2.712-2.248-4.396-5.143-5.28-8.525a19.008 19.008 0 0 1-.603-5.29c.074-3.267.832-6.365 2.565-9.175 2.252-3.681 5.494-6.01 9.712-6.947.785-.163 1.58-.27 2.381-.322.87-.068 1.745-.058 2.614.028 3.115.294 5.923 1.367 8.337 3.39 2.62 2.194 4.274 5.005 5.172 8.28.388 1.428.599 2.9.627 4.379.005.252.023.506.037.763Zm-9.095-.287a10.925 10.925 0 0 0-.296-2.576 9.02 9.02 0 0 0-1.747-3.732c-1.578-1.92-3.607-2.603-6.016-2.062-1.541.345-2.68 1.309-3.547 2.599a10.182 10.182 0 0 0-1.632 5.055 12.208 12.208 0 0 0 .2 3.37 9.703 9.703 0 0 0 1.68 3.952c1.345 1.785 3.105 2.683 5.377 2.456a5.335 5.335 0 0 0 2.495-.907 6.937 6.937 0 0 0 2.229-2.552c.893-1.68 1.269-3.485 1.269-5.613l-.012.01ZM88.334 69.95a42.172 42.172 0 0 1-.294 4.487c-.27 2.386-.7 4.742-1.539 6.998-.28.739-.608 1.46-.979 2.157-.245.437-.53.85-.851 1.234a3.73 3.73 0 0 1-.625.605c-.973.76-1.999.76-2.978 0a5.58 5.58 0 0 1-1.317-1.519 14.614 14.614 0 0 1-1.463-3.35 30.98 30.98 0 0 1-1.06-4.798 45.797 45.797 0 0 1-.467-7.45c.03-2.096.21-4.187.536-6.257.292-2.005.81-3.97 1.544-5.857.294-.749.668-1.463 1.117-2.13.319-.488.72-.917 1.185-1.269a2.226 2.226 0 0 1 2.784 0c.496.37.919.83 1.247 1.355a13.592 13.592 0 0 1 1.53 3.317 30.105 30.105 0 0 1 1.134 4.962c.354 2.49.52 5.002.496 7.516ZM82.551 48.196a5.733 5.733 0 0 0 5.732-5.734 5.733 5.733 0 1 0-11.463 0 5.733 5.733 0 0 0 5.731 5.734Z"/></g><defs><linearGradient id="b" x1="0" x2="140" y1="60.282" y2="60.282" gradientUnits="userSpaceOnUse"><stop stop-color="#EA3492"/><stop offset=".165" stop-color="#B529DD"/><stop offset=".33" stop-color="#9F2BFE"/><stop offset=".595" stop-color="#A02BFD"/><stop offset=".786" stop-color="#7553FE"/><stop offset="1" stop-color="#04C9FE"/></linearGradient><clipPath id="a"><path fill="#fff" d="M0 0h140v122H0z"/></clipPath></defs></svg>
