<svg xmlns="http://www.w3.org/2000/svg" fill="none" viewBox="0 0 44 43"><g fill="var(--colors-primaryMedium)"><path d="M27.962 42.106a2.67 2.67 0 0 1-1.195-.277l-4.418-2.162a.812.812 0 0 0-.699 0l-4.418 2.162a2.696 2.696 0 0 1-3.586-1.167l-2.305-4.351a.833.833 0 0 0-.564-.411l-4.848-.842a2.703 2.703 0 0 1-2.219-3.05l.689-4.878a.772.772 0 0 0-.22-.66L.755 22.932a2.696 2.696 0 0 1 0-3.768l3.424-3.538a.802.802 0 0 0 .22-.66l-.689-4.877a2.71 2.71 0 0 1 2.219-3.041l4.848-.852a.78.78 0 0 0 .564-.41l2.305-4.352A2.705 2.705 0 0 1 17.232.267L21.65 2.43c.22.105.479.105.699 0L26.767.267a2.705 2.705 0 0 1 3.586 1.167l2.305 4.351c.114.21.325.364.564.411l4.848.852a2.689 2.689 0 0 1 2.21 3.05l-.69 4.877a.772.772 0 0 0 .22.66l3.424 3.539a2.696 2.696 0 0 1 0 3.768l-3.423 3.538a.802.802 0 0 0-.22.66l.688 4.877a2.684 2.684 0 0 1-2.218 3.041l-4.849.851a.78.78 0 0 0-.564.411l-2.305 4.352a2.665 2.665 0 0 1-2.38 1.434Zm-5.967-4.437c.401 0 .813.095 1.185.277l4.419 2.161a.791.791 0 0 0 1.052-.344l2.304-4.351a2.68 2.68 0 0 1 1.923-1.396l4.848-.852a.79.79 0 0 0 .65-.889l-.688-4.877a2.694 2.694 0 0 1 .736-2.257l3.424-3.538a.803.803 0 0 0 0-1.11l-3.424-3.538a2.714 2.714 0 0 1-.736-2.266l.688-4.878a.78.78 0 0 0-.65-.89l-4.83-.84a2.687 2.687 0 0 1-1.922-1.397L28.67 2.333a.8.8 0 0 0-1.052-.344L23.2 4.149a2.674 2.674 0 0 1-2.381 0L16.4 1.99a.791.791 0 0 0-1.052.344l-2.304 4.351A2.68 2.68 0 0 1 11.12 8.08l-4.867.851a.801.801 0 0 0-.65.9l.688 4.877a2.694 2.694 0 0 1-.736 2.257l-3.424 3.538a.803.803 0 0 0 0 1.11l3.424 3.538c.583.602.85 1.434.736 2.266l-.688 4.877a.793.793 0 0 0 .65.88l4.848.851c.832.144 1.53.66 1.922 1.396l2.305 4.352c.201.382.66.526 1.052.344l4.418-2.161a2.71 2.71 0 0 1 1.196-.287Z"/><path d="M21.995 34.638c-7.488 0-13.58-6.092-13.58-13.58s6.092-13.58 13.58-13.58 13.58 6.092 13.58 13.58-6.092 13.58-13.58 13.58Zm0-25.247c-6.436 0-11.667 5.23-11.667 11.667 0 6.436 5.231 11.667 11.667 11.667s11.667-5.231 11.667-11.667S28.432 9.39 21.995 9.39Z"/><path d="M17.482 26.566a.98.98 0 0 1-.68-.277l-.038-.038a.947.947 0 0 1-.277-.68c0-.258.105-.497.277-.678l9.076-9.076a.961.961 0 0 1 1.348-.01c.182.182.306.44.306.699 0 .258-.076.516-.258.698l-9.075 9.075a.95.95 0 0 1-.68.287ZM18.639 20.331a2.645 2.645 0 0 1-2.64-2.64 2.645 2.645 0 0 1 2.64-2.639 2.645 2.645 0 0 1 2.64 2.64 2.65 2.65 0 0 1-2.64 2.64Zm0-3.366a.726.726 0 1 0 .727.727.739.739 0 0 0-.727-.727ZM25.362 27.064a2.645 2.645 0 0 1-2.64-2.64 2.645 2.645 0 0 1 2.64-2.64 2.639 2.639 0 1 1 0 5.279Zm0-3.367a.726.726 0 1 0-.001 1.453.726.726 0 0 0 0-1.453Z"/></g></svg>
