<svg xmlns="http://www.w3.org/2000/svg" fill="none" viewBox="0 0 190 76"><path fill="#ED3237" d="M43.612 0c-26 0-33.548 15.716-33.548 25.966 0 10.25 7.777 15.413 14.182 17.69 9.378 3.037 18.603 3.493 18.603 8.808 0 3.264-4.04 5.694-9.76 5.694-9.682 0-17.764-4.252-21.119-8.048L0 64.687C6.023 71.748 17.231 76 30.193 76c16.468 0 26.838-5.39 32.403-18.981l-3.202 16.476h21.958l5.109-28.396 15.02 28.396h25.923l-19.29-33.939 14.334-16.475 11.131 19.892-6.099 30.446h21.577l5.185-27.333L190 2.05h-25.161l-17.078 22.853L136.096 2.05h-21.578L88.824 32.875 95.305 2.05H73.423l-1.144 6.378C66.637 3.872 56.802 0 43.612 0Zm27.447 13.439-6.1 31.736c-1.295-8.655-5.946-13.666-24.245-17.766-4.727-1.14-8.844-1.595-8.844-4.935 0-3.265 3.583-5.087 8.997-5.087 7.853 0 15.553 3.037 21.577 6.833l8.615-10.705v-.076Z"/></svg>
