<svg xmlns="http://www.w3.org/2000/svg" fill="none" viewBox="0 0 241 64"><path fill="#023163" d="M234.949.006h-4.241c-5.444 0-5.789.602-6.208 1.533l-8.428 20.296c-2.803 6.736-5.698 13.983-6.808 17.742a155.463 155.463 0 0 0-6.808-18.09l-8.427-19.95c-.51-1.205-2.639-1.533-7.227-1.533h-4.77c-4.679 0-5.624.42-5.624 1.369v61.24c0 1.113.945 1.368 5.788 1.368h2.646c4.77 0 6.135-.255 6.135-1.368V26.29h.345c.286 1.11.657 2.197 1.11 3.25l9.702 22.779c.419 1.022.947 1.443 5.443 1.443h2.894c4.586 0 4.933-.346 5.351-1.443l8.846-21.922a40.818 40.818 0 0 0 1.44-4.107h.345v36.342c0 1.113.929 1.368 5.953 1.368h2.548c4.679 0 6.047-.255 6.047-1.368V1.373c0-.95-1.365-1.368-6.047-1.368h-.005Zm-70.604 1.368c0-.95-1.348-1.368-6.025-1.368h-2.735c-4.934 0-5.789.42-5.789 1.368v61.239c0 1.113.855 1.368 5.789 1.368h2.735c4.679 0 6.046-.255 6.046-1.368l-.021-61.239ZM138.4.006c1.274 0 1.529.164 1.529 4.691v4.187c0 4.343-.346 4.854-1.529 4.854h-14.454v48.875c0 1.113-1.365 1.368-6.208 1.368h-2.548c-4.933 0-5.789-.255-5.789-1.368v-48.88H94.948c-1.184 0-1.53-.347-1.53-4.855V4.692C93.4 0 93.656 0 94.929 0H138.4v.006Z"/><path fill="#E40D2C" d="M30.545 50.296H3.677a3.657 3.657 0 0 0-2.603 1.077A3.677 3.677 0 0 0 0 53.984V60.3a3.589 3.589 0 0 0 1.074 2.598 3.612 3.612 0 0 0 2.603 1.077h26.868v-13.68Zm44.743 1.096a3.627 3.627 0 0 0-2.602-1.096H45.818v13.672h26.868a3.658 3.658 0 0 0 2.591-1.083 3.677 3.677 0 0 0 1.068-2.604v-6.316a3.637 3.637 0 0 0-1.055-2.574h-.002Zm.002-25.134a3.627 3.627 0 0 0-2.603-1.096h-26.87v13.672h26.869a3.658 3.658 0 0 0 2.591-1.083 3.678 3.678 0 0 0 1.068-2.604v-6.334a3.62 3.62 0 0 0-1.055-2.555Zm-44.744-1.096H3.677a3.66 3.66 0 0 0-2.597 1.07 3.678 3.678 0 0 0-1.08 2.6v6.332c.006.977.395 1.911 1.083 2.601.689.69 1.62 1.08 2.594 1.086h26.868l.001-13.689ZM72.687 13.7H3.677a3.715 3.715 0 0 1-2.603-1.077A3.655 3.655 0 0 1 0 10.012V3.698A3.692 3.692 0 0 1 2.267.296a3.603 3.603 0 0 1 1.41-.273h69.009a3.658 3.658 0 0 1 2.591 1.083 3.678 3.678 0 0 1 1.068 2.603v6.316a3.655 3.655 0 0 1-1.065 2.602 3.637 3.637 0 0 1-2.594 1.067"/></svg>
