<svg xmlns="http://www.w3.org/2000/svg" fill="none" viewBox="0 0 242 78"><path fill="url(#a)" d="M241.712 41.932 231.448 6.158C230.422 2.492 227.05 0 223.385 0c-.734 0-1.613.147-2.346.293-2.933.88-5.132 3.08-5.865 5.865L206.23 37.24l-3.225-11.583c-.88-3.226-4.252-5.132-7.478-4.252a6.2 6.2 0 0 0-4.251 4.252l-4.692 16.128-1.173-4.106c-.733-2.345-3.079-3.812-5.572-3.078-2.492.733-3.665 3.078-3.078 5.57l2.639 9.238c.733 2.346 3.079 3.812 5.571 3.079a4.627 4.627 0 0 0 3.079-3.08l4.545-15.687 4.105 14.515c.88 3.225 4.252 5.131 7.478 4.252a6.204 6.204 0 0 0 4.252-4.252l8.797-30.496 8.21 28.736c1.32 4.546 6.011 7.038 10.41 5.865 4.545-1.173 7.038-5.865 5.865-10.41Z"/><path fill="#202E38" d="M68.557 43.545c-6.45 0-10.85 1.467-11.436 1.613-1.613.44-1.76 1.466-1.173 3.959.587 2.639.733 3.225 2.346 2.932 0 0 5.278-1.466 8.21-1.466 3.813 0 5.279 1.76 5.279 4.692v1.76c0 .146 0 .146-.147.146-1.76-.147-3.519-.293-5.131-.293-7.771 0-13.196 2.492-13.196 10.41 0 7.917 6.305 10.262 14.368 10.262 5.132 0 9.09-1.32 10.41-2.052 1.32-.587 2.2-1.466 2.2-3.372V60.113c0-5.132.146-7.038-1.173-10.263-.88-2.786-4.106-6.305-10.557-6.305ZM71.93 70.23c0 .146 0 .146-.146.293-1.027.293-2.346.586-3.812.586-3.666 0-5.718-1.173-5.718-3.812 0-3.079 2.199-3.812 5.278-3.812 1.173 0 2.346 0 4.105.294.147 0 .147.146.147.293l.146 6.158ZM43.048 43.984c-4.252 0-4.692.587-4.692 3.226v26.684c0 2.64.44 3.226 4.692 3.226s4.692-.587 4.692-3.226V47.21c.146-2.64-.44-3.226-4.692-3.226ZM30.291 34.895c-3.958 0-4.545.587-5.278 3.226l-7.77 29.03-7.625-28.883c-.586-2.64-1.32-3.226-5.278-3.226-3.958 0-4.838.587-4.105 3.226l10.263 35.774c.88 2.64 2.64 3.226 6.891 3.226 4.252 0 6.011-.587 6.891-3.226l10.263-35.774c.587-2.786-.293-3.373-4.252-3.373ZM106.826 60.26c-1.613-1.466-3.959-2.346-7.478-3.519-2.199-.88-4.398-1.32-4.398-3.225 0-1.76 1.613-2.346 2.932-2.493 2.786-.147 5.865.88 7.624 1.32 1.76.293 1.76-.294 2.346-2.933.587-2.639.587-3.518-1.173-3.958-1.466-.44-4.105-1.613-9.677-1.613-7.037 0-11.289 4.398-11.142 9.97.146 6.89 5.571 8.797 9.676 9.97 3.52 1.026 5.278 2.052 5.132 4.252-.147 1.906-1.76 2.785-3.666 2.785-2.492 0-6.597-1.026-8.796-1.612-1.613-.294-1.907.733-2.346 3.372-.44 2.639-.44 3.079 1.32 3.665 0 0 5.13 1.76 10.409 1.76 3.959 0 7.038-1.467 8.65-2.786 2.2-1.613 3.372-4.545 3.372-8.21 0-2.786-.586-4.84-2.785-6.745ZM167.378 43.545c-3.812 0-4.252 1.906-4.252 4.252v.147c0 2.346.586 4.252 4.252 4.252 3.665 0 4.252-1.906 4.252-4.252v-.147c0-2.346-.44-4.252-4.252-4.252Z"/><path fill="#202E38" d="M167.671 69.057c-2.2.293-4.839 1.026-6.012.147-.879-.587-1.173-1.173-1.173-3.959V38.121c0-2.639-.439-3.226-4.691-3.226s-4.692.587-4.692 3.226v5.718h-4.545c-2.199 0-2.786.44-2.786 3.959 0 3.518.587 3.958 2.786 3.958h4.252v14.369c0 3.079.293 6.598 3.079 8.943 1.906 1.613 4.252 2.053 6.451 2.053 3.519 0 6.744-.733 8.21-1.173 1.76-.44 1.76-1.32 1.32-3.958-.293-2.493-.44-3.226-2.199-2.933ZM128.671 43.545c-6.451 0-10.85 1.467-11.436 1.613-1.613.44-1.76 1.466-1.173 3.959.586 2.639.586 3.225 2.346 2.932 0 0 5.278-1.466 8.21-1.466 3.812 0 5.278 1.76 5.278 4.692v1.76c0 .146 0 .146-.146.146-1.613-.147-3.519-.293-5.132-.293-7.771 0-13.195 2.492-13.195 10.41 0 7.917 6.304 10.262 14.368 10.262 5.132 0 9.09-1.32 10.41-2.052 1.319-.587 2.199-1.466 2.199-3.372V60.113c0-5.132.147-7.038-1.173-10.263-1.026-2.786-4.252-6.305-10.556-6.305Zm3.225 26.685c0 .146 0 .146-.146.293-1.027.293-2.346.586-3.812.586-3.666 0-5.718-1.173-5.718-3.812 0-3.079 2.199-3.812 5.278-3.812 1.173 0 2.346 0 4.105.294.147 0 .147.146.147.293l.146 6.158Z"/><defs><linearGradient id="a" x1="176.315" x2="243.729" y1="51.857" y2="51.857" gradientUnits="userSpaceOnUse"><stop stop-color="#202E38"/><stop offset=".38" stop-color="#008CC7"/><stop offset=".849" stop-color="#BDD743"/></linearGradient></defs></svg>
