<svg xmlns="http://www.w3.org/2000/svg" fill="none" viewBox="0 0 241 91"><path fill="#609" fill-rule="evenodd" d="M32.177 89.938h5.877c.971 0 4.766-.512 6.894-4.331l24.338-43.455c2.499-4.61-.462-8.523-3.053-9.455l-6.478-2.934c-3.47-1.583-7.681.093-9.255 3.773L35.232 64.462H35L19.73 33.536c-1.573-3.68-5.737-5.31-9.254-3.773L4 32.697c-2.592.979-5.553 4.89-3.054 9.455l24.338 43.455c2.128 3.819 5.923 4.331 6.894 4.331ZM139.156 89.938h5.877c.971 0 4.766-.512 6.894-4.331l24.338-43.455c2.499-4.61-.462-8.523-3.053-9.455l-6.478-2.934c-3.471-1.583-7.681.093-9.255 3.773L142.21 64.462h-.231L126.71 33.536c-1.574-3.68-5.738-5.31-9.255-3.773l-6.477 2.934c-2.592.979-5.553 4.89-3.054 9.455l24.338 43.455c2.128 3.819 5.923 4.331 6.894 4.331Z" clip-rule="evenodd"/><path fill="#609" d="M210.6 29.39c-16.796 0-30.4 13.693-30.4 30.6 0 16.906 13.604 30.6 30.4 30.6S241 76.895 241 59.99c0-16.907-13.604-30.6-30.4-30.6Zm0 42.616c-6.617 0-11.984-5.403-11.984-12.063 0-6.66 5.367-12.063 11.984-12.063s11.984 5.403 11.984 12.063c.046 6.66-5.367 12.063-11.984 12.063ZM100.518 11.97c0 6.614-5.321 11.97-11.892 11.97-6.57 0-11.891-5.356-11.891-11.97C76.735 5.356 82.055 0 88.626 0c6.524-.046 11.892 5.356 11.892 11.97Z"/><path fill="#609" fill-rule="evenodd" d="M78.217 37.4c0-4.099 3.285-7.406 7.357-7.406h6.154c4.072 0 7.357 3.307 7.357 7.406v45.13c0 4.1-3.285 7.406-7.357 7.406h-6.154c-4.072 0-7.357-3.307-7.357-7.405V37.4Z" clip-rule="evenodd"/></svg>
