<svg xmlns="http://www.w3.org/2000/svg" version="1.0" viewBox="0 0 1440 810"><defs><clipPath id="a"><path d="M5.012 28.535h1429.976v681.64H5.012Zm0 0"/></clipPath><clipPath id="b"><path d="M43.262 28.535h1353.476c21.125 0 38.25 17.125 38.25 38.25v605.14c0 21.126-17.125 38.25-38.25 38.25H43.262c-21.121 0-38.25-17.124-38.25-38.25V66.786c0-21.125 17.129-38.25 38.25-38.25Zm0 0"/></clipPath></defs><g clip-path="url(#a)"><g clip-path="url(#b)"><path fill="#417bff" d="M5.012 28.535h1429.976v681.64H5.012Zm0 0"/></g></g><path fill="#fff" d="M125.846 135.666h168.39c47 0 85.04 12.121 114.126 36.36 29.093 24.242 43.64 59.484 43.64 105.734 0 46.25-14.734 82.523-44.203 108.813-29.46 26.292-67.312 39.437-113.562 39.437h-63.22v171.188H125.847Zm105.172 206.422h29.656c23.5 0 42.8-4.754 57.906-14.265 15.102-9.508 22.657-25.079 22.657-46.704 0-22.007-7.555-37.77-22.657-47.28-15.105-9.509-34.406-14.266-57.906-14.266h-29.656ZM498.421 135.666h133.703c64.157 0 118.985 21.914 164.485 65.735 45.5 43.824 68.25 98.742 68.25 164.75 0 66.386-22.664 121.492-67.985 165.312-45.312 43.824-100.23 65.735-164.75 65.735H498.421Zm105.172 367.547h16.234c38.414 0 69.836-12.957 94.266-38.875 24.426-25.926 36.828-58.469 37.203-97.625 0-39.164-12.219-71.8-36.656-97.906-24.43-26.102-56.031-39.156-94.813-39.156h-16.234ZM890.572 366.15c0-66.757 22.75-123.257 68.25-169.5 45.507-46.25 100.335-69.374 164.484-69.374 64.52 0 119.344 23.03 164.469 69.093 45.132 46.055 67.703 102.649 67.703 169.782 0 67.5-22.196 124.28-66.578 170.343-44.387 46.063-99.586 69.094-165.594 69.094-67.512 0-123.18-22.844-167-68.531-43.824-45.688-65.734-102.656-65.734-170.906Zm113.578 0c0 24.243 3.726 46.34 11.187 66.298 7.457 19.949 20.508 36.824 39.156 50.625 18.645 13.804 41.582 20.703 68.813 20.703 39.156 0 68.707-13.426 88.656-40.282 19.957-26.851 29.938-59.3 29.938-97.343 0-37.664-10.164-70.02-30.485-97.063-20.324-27.039-49.695-40.562-88.11-40.562-38.042 0-67.413 13.523-88.108 40.562-20.7 27.043-31.047 59.399-31.047 97.063Zm0 0"/></svg>
